<svg xmlns="http://www.w3.org/2000/svg" id="Capa_1" viewBox="0 0 1080 1080"><defs><style>.cls-1{fill:#00b2e3;}.cls-2{fill:#fff;}.cls-3{fill:#002f57;}</style></defs><path class="cls-3" d="M603.45,90.76l.02-.13c.89-7.56-3.79-12.56-11.62-13.49l-5.34-.63-2.84,24.04,5.34.63c7.84.93,13.54-2.78,14.45-10.42Z"/><polygon class="cls-3" points="526.74 78.09 521.76 91.77 532.43 91.46 526.74 78.09"/><path class="cls-3" d="M922.07,785.13l-.11-.08c-5.68-3.87-13.42-3.13-17.48,2.82-4.1,6.01-1.98,13.3,3.7,17.17l.11.08c5.67,3.87,13.42,3.13,17.52-2.88,4.06-5.96,1.94-13.24-3.73-17.11Z"/><path class="cls-3" d="M460.38,92.47c4.41-.8,6.57-3.4,5.95-6.81l-.03-.14c-.66-3.68-3.68-5.07-8.03-4.28l-8.5,1.54,2.04,11.24,8.56-1.55Z"/><path class="cls-3" d="M197.23,837.21l-.1.09c-5.64,5.12-5.39,11.97-.09,17.81l3.61,3.98,17.92-16.27-3.61-3.98c-5.3-5.84-12.04-6.79-17.73-1.63Z"/><path class="cls-3" d="M140.8,768.79l-.12.07c-3.5,2.09-3.91,5.66-1.46,9.75l3.17,5.31,10.8-6.45-3.21-5.37c-2.4-4.03-5.97-5.22-9.18-3.3Z"/><path class="cls-3" d="M156.93,296.94l-.12-.07c-6.51-3.94-13-1.76-17.09,4.98l-2.79,4.59,20.7,12.54,2.78-4.59c4.09-6.75,3.08-13.48-3.49-17.46Z"/><path class="cls-3" d="M983.33,443.21c-6.74,1.28-11.69,7.27-10.35,14.35,1.36,7.15,8,10.79,14.75,9.51l.13-.03c6.75-1.28,11.7-7.27,10.34-14.42-1.35-7.08-7.99-10.73-14.73-9.45l-.14.02Z"/><polygon class="cls-3" points="964.87 684.33 961.31 694.4 975.84 693.9 964.87 684.33"/><polygon class="cls-3" points="82.89 607.65 97.06 610.99 95.5 600.43 82.89 607.65"/><path class="cls-3" d="M999.09,569.28h.14c4.08.19,6.37-2.57,6.59-7.32l.28-6.18-12.57-.56-.28,6.25c-.21,4.69,2.11,7.65,5.84,7.82Z"/><path class="cls-3" d="M540,5C244.53,5,5,244.53,5,540s239.53,535,535,535,535-239.53,535-535S835.47,5,540,5ZM1015.64,497.56l-17.65,12.53,19.13,10.13.91,13.91-47.5,3.1-.85-13.09,27.28-1.78-19.38-10.93-.02-.27,17.67-13.28-27.14,1.77-.84-12.89,47.5-3.1.91,13.91ZM1009.9,450.55c2.74,14.42-5.98,27.15-19.4,29.7l-.14.03c-13.42,2.55-26.36-6.2-29.1-20.62-2.74-14.42,5.98-27.15,19.4-29.7l.13-.03c13.42-2.55,26.36,6.2,29.1,20.62ZM998.23,402.51c2.85,9.3.77,16.48-3.59,22.22l-10.25-7.25c2.46-3.6,3.62-7.22,2.29-11.58-1.95-6.37-8.72-9.21-15.35-7.18l-.13.04c-6.83,2.09-10.79,8.21-8.84,14.58,1.45,4.75,4.52,6.87,8.67,8.59l-3.86,11.56c-7.23-2.48-13.35-6.94-16.44-17.02-3.98-13.01,2.77-26.52,16.37-30.68l.13-.04c13.27-4.06,26.79,2.97,31.01,16.76ZM968.67,329.42l-11.59,16.2,19.88,1.62,6.23,13.38-34.45-3.91-16.34,7.61-5.6-12.02,16.15-7.52,19.37-28.97,6.34,13.62ZM867.47,192.44l-4.86,21.09,21.03-5.14,9.92,9.79-33.12,33.57,49.76-13.91,7.92,9.95-21.02,38.63,10.7,1.37c-.62,5.97.54,11.44,3.51,16.08,1.91,2.98,3.97,3.92,5.68,2.82l.11-.07c1.66-1.06,1.74-2.97-.49-9.21-3.52-9.78-5.33-17.9,2.92-23.19l.12-.07c7.44-4.77,16.6-2.32,22.77,7.3,4.36,6.81,5.94,13.31,5.24,19.9l-11.4-.53c.23-5.32-.96-10.2-3.24-13.75-1.72-2.69-3.71-3.27-5.14-2.36l-.12.07c-1.83,1.18-1.75,3.06.55,9.42,3.9,10.5,4.59,18.14-2.91,22.94l-.12.07c-8.19,5.24-17.2,1.89-23.44-7.84-4.23-6.59-6.33-14.13-5.6-21.38l-3,5.51-8.81-11.06,4.49-8.01-11.43-14.36-8.77,2.64-8.52-10.71-.06.06-9.34-9.22,19.2-19.46-21.75,4.71-.2-.19,4.37-21.67-19.1,19.36-9.19-9.07,33.43-33.88,9.92,9.79ZM921.99,540c0,210.97-171.02,381.99-381.99,381.99s-381.99-171.02-381.99-381.99,171.02-381.99,381.99-381.99,381.99,171.02,381.99,381.99ZM851.68,177.87l-6.97,8.79-19.77-15.66-4.47,5.65,17.91,14.19-6.46,8.15-17.91-14.18-4.69,5.92,20.04,15.88-6.97,8.79-30.28-23.98,29.55-37.31,30.01,23.77ZM817.13,150.67l-6.3,9.7-11.98-7.78-19.63,30.23-11.07-7.19,19.63-30.23-11.98-7.78,6.3-9.7,35.02,22.74ZM762.07,116.38c7.16,3.77,11.73,8.65,14.37,14.73l-10.18,5.16c-2.42-4.73-5.87-8.4-9.59-10.36-2.83-1.49-4.85-1.02-5.64.49l-.07.12c-1.01,1.93-.02,3.53,5.12,7.93,8.57,7.21,12.94,13.51,8.78,21.39l-.07.12c-4.53,8.6-14.03,10.12-24.25,4.73-7.46-3.94-13.31-10.02-16.04-17.38l10.59-4.33c2.4,5.5,6.11,9.68,10.98,12.25,3.13,1.65,5.38,1.46,6.33-.35l.06-.12c.92-1.74.05-3.43-4.97-7.77-7.88-6.77-13.46-12.94-8.9-21.6l.07-.12c4.12-7.82,13.3-10.2,23.4-4.87ZM739.54,106.12l-19.31,43.52-12.12-5.38,19.31-43.51,12.12,5.38ZM679.34,116.35c3.12,5.12,7.37,8.76,12.54,10.65,3.32,1.21,5.53.71,6.23-1.2l.05-.13c.67-1.85-.42-3.41-5.98-7.03-8.72-5.64-15.09-11-11.74-20.2l.05-.13c3.03-8.31,11.8-11.91,22.53-7.99,7.6,2.77,12.79,6.98,16.23,12.65l-9.39,6.49c-3.04-4.36-6.95-7.53-10.91-8.97-3-1.1-4.94-.35-5.52,1.25l-.05.12c-.75,2.04.46,3.5,6.14,7.16,9.47,5.99,14.64,11.64,11.59,20.01l-.05.13c-3.33,9.14-12.53,11.93-23.39,7.97-7.92-2.89-14.55-8.13-18.25-15.05l9.91-5.72ZM664.04,78.46l-2.45,10.95-24.62-5.51-1.57,7.03,22.3,4.99-2.28,10.15-22.29-4.99-1.65,7.37,24.95,5.59-2.45,10.95-37.69-8.44,10.4-46.45,37.36,8.37ZM574.78,63.34l18.23,2.15c16.88,2,25.53,12.88,23.92,26.52l-.02.14c-1.61,13.64-12.74,22.6-29.75,20.59l-17.96-2.12,5.58-47.27ZM532.75,62.27l21.63,47.34-14.14.41-3.71-8.4-18.35.53-3.15,8.59-13.87.4,18.88-48.5,12.71-.36ZM489.19,49.47l12.38,2.57-9.01,9.72-9.05.97,5.69-13.26ZM495.6,64.64l5.08,47.31-13.18,1.42-5.08-47.31,13.18-1.42ZM456.9,69.89c7.16-1.3,12.45-.32,16.17,2.32,3.23,2.18,5.29,5.54,6.12,10.15l.03.13c1.3,7.16-1.66,12.6-7.02,16.13l14.13,14.3-14.99,2.72-12-12.47-.13.03-5.55,1.01,2.57,14.18-12.98,2.35-8.49-46.82,22.14-4.02ZM427.82,75.51l3.08,10.79-24.26,6.92,1.98,6.93,21.97-6.27,2.85,10-21.97,6.27,2.07,7.26,24.59-7.01,3.08,10.79-37.14,10.6-13.06-45.77,36.82-10.5ZM383.77,88.76l16.17,44.78-12.48,4.5-16.16-44.78,12.47-4.5ZM333.9,109.17l28.2,14.87-10.35-22.93,11.9-5.37,19.58,43.37-10.53,4.75-29.27-15.43,10.74,23.79-11.9,5.37-19.58-43.37,11.21-5.06ZM316.13,117.75l5.66,9.68-21.77,12.73,3.64,6.22,19.72-11.53,5.25,8.98-19.72,11.53,3.81,6.52,22.07-12.9,5.66,9.68-33.33,19.49-24.03-41.08,33.04-19.32ZM259.13,152.69c6.74-4.94,13.04-6.35,19.67-5.82l-.74,12.09c-4.43-.29-8.14.4-11.92,3.17-5.54,4.06-6.4,11.85-2.1,17.72l.08.11c4.54,6.19,12.13,7.46,18.21,3,2.57-1.89,4.15-3.89,4.98-6.09l-3.42-4.66-7.57,5.55-5.71-7.79,17.65-12.94,12.66,17.27c-1.61,6.32-5.37,13.03-12.33,18.14-11.95,8.76-26.92,7.08-35.43-4.54l-.08-.11c-8.2-11.19-5.85-26.39,6.05-35.11ZM209.28,195.5l31.46,5.22-17.06-18.5,9.6-8.85,32.28,34.99-8.5,7.84-32.65-5.41,17.71,19.2-9.6,8.85-32.28-34.99,9.05-8.35ZM194.98,209.96l34.87,32.4-9.03,9.71-34.87-32.4,9.03-9.71ZM170.71,236.84l8.95,6.75-15.19,20.13,5.75,4.34,13.75-18.23,8.3,6.26-13.76,18.23,6.03,4.55,15.39-20.4,8.95,6.75-23.26,30.82-37.98-28.66,23.05-30.55ZM129.62,295.96c8.81-14.54,22.29-17.89,34.04-10.77l.12.07c11.75,7.12,15.29,20.95,6.4,35.6l-9.37,15.46-40.7-24.67,9.52-15.7ZM98.15,356.43c5.63-13.56,19.92-19.41,32.54-14.16l.12.05c12.62,5.24,18.63,19.67,13,33.23-5.64,13.56-19.92,19.41-32.54,14.16l-.12-.05c-12.62-5.24-18.63-19.67-13-33.23ZM88.6,382.9l11.07,3.31-4.09,13.68,34.51,10.33-3.78,12.63-34.51-10.33-4.09,13.67-11.07-3.31,11.96-39.98ZM69.05,460.85l28.35-14.57-24.71-4.67,2.42-12.83,46.76,8.84-2.15,11.36-29.42,15.12,25.65,4.85-2.43,12.82-46.76-8.84,2.29-12.09ZM65.88,480.25l11.18.93-2.09,25.15,7.19.59,1.89-22.77,10.37.86-1.9,22.77,7.52.63,2.12-25.48,11.18.93-3.2,38.49-47.44-3.94,3.17-38.16ZM66.48,603.53l44.26-26.9-47.3,1.27-.37-13.94,18.12-11.85-18.73-10.86-.38-13.94,47.59-1.28.35,13.12-27.33.74,18.96,11.67v.27s-18.16,12.6-18.16,12.6l27.19-.73.35,12.92h-.06s2.04,13.87,2.04,13.87l-7.9,4.67,2.68,18.16,8.9,2.12,2.02,13.72-50.37-13.06-1.85-12.58ZM71.04,631.78l11.24-2.71,3.34,13.88,35.03-8.44,3.09,12.82-35.03,8.44,3.34,13.88-11.24,2.7-9.78-40.58ZM105.74,739.49l34.45-38.7-44.42,15.42-7.38-21.26c-2.38-6.87-2.23-12.25-.2-16.34,1.65-3.53,4.66-6.08,9.09-7.61l.13-.05c6.87-2.39,12.7-.31,17.02,4.45l11.95-16.17,5,14.39-10.47,13.78.05.13,1.85,5.33,13.62-4.73,4.33,12.46-.34.12,6.02,12.67-6.19,6.78,7.88,16.58,9.14-.57,5.96,12.53-52,2.27-5.46-11.49ZM129.19,783.42c-6.18-10.33-4.85-20.16,4.2-25.57l.12-.07c9.63-5.76,19.14-1.38,25.21,8.77l3.35,5.6,11.67-6.98,6.77,11.32-40.85,24.43-10.47-17.51ZM143.53,806.84l9.03-6.65,14.95,20.32,5.81-4.27-13.54-18.4,8.38-6.16,13.54,18.4,6.08-4.47-15.15-20.59,9.03-6.65,22.89,31.1-38.33,28.21-22.69-30.82ZM200.85,876.71l-12.34-13.59c-11.42-12.59-10.8-26.47-.63-35.7l.1-.09c10.17-9.23,24.44-8.69,35.96,4l12.15,13.39-35.24,31.99ZM369.15,967.67c-39.12-15.63-75.94-36.64-109.44-62.44l8.77-11.38c32.45,25,68.11,45.34,106,60.48l-5.33,13.35ZM495.05,1003.28c-4.07,23.72-19.4,31.78-40.28,28.2-20.89-3.59-32.19-16.44-28.24-39.43l7.09-41.25,20.68,3.56-7.01,40.82c-1.82,10.6,2.66,16.56,10.85,17.97,8.19,1.41,14.37-2.5,16.14-12.79l7.11-41.35,20.67,3.55-7,40.72ZM540.53,1038.91c-21.3-.15-38.33-16.57-38.18-38.83v-.22c.16-21.73,17-38.65,39.58-38.49,15.23.11,24.99,6.57,31.53,15.78l-15.64,11.92c-4.23-5.35-9.1-8.8-16.24-8.85-10.44-.07-17.85,8.72-17.93,19.58v.22c-.08,11.19,7.21,19.97,17.65,20.05,7.78.05,12.38-3.53,16.89-8.93l15.47,11.19c-7.1,9.64-16.63,16.71-33.14,16.59ZM637.29,1028.19l-38.01-35.23,6.59,40.36-20.18,3.29-12.01-73.58,19.02-3.1,36.62,33.95-6.35-38.89,20.18-3.3,12.01,73.58-17.87,2.92ZM707.53,968.15l-5.29-13.36c41.77-16.55,80.72-39.34,115.78-67.74l9.05,11.17c-36.19,29.32-76.4,52.85-119.53,69.94ZM907.47,844.93l-31.82-1.76,18.96,16.52-8.57,9.84-35.87-31.26,7.59-8.71,33.03,1.83-19.68-17.15,8.57-9.84,35.87,31.26-8.08,9.27ZM900.81,816.32l-.11-.08c-11.29-7.7-14.25-23.05-5.98-35.18,8.27-12.14,23.45-14.97,34.75-7.27l.11.08c11.3,7.7,14.26,23.05,5.98,35.19-8.27,12.14-23.45,14.97-34.74,7.27ZM936.49,827.13l-1.56-13.16,5.13-7.53,6.41,12.93-9.98,7.76ZM952.07,781.29l-41.39-23.52,6.55-11.53,41.39,23.51-6.54,11.53ZM971.21,747.34c-4.17,8.79-10.53,12.7-17.62,14l-2.69-12.26c4.24-1,7.54-2.9,9.5-7.01,2.86-6.02-.23-12.68-6.5-15.65l-.12-.06c-6.45-3.06-13.5-1.21-16.36,4.81-2.12,4.49-1.29,8.12.63,12.19l-10.64,5.94c-3.67-6.71-5.2-14.13-.68-23.65,5.82-12.29,19.91-17.73,32.76-11.64l.12.06c12.54,5.94,17.8,20.25,11.62,33.28ZM988.44,705.21l-51.96,3.15,4.71-13.34,9.17-.44,6.12-17.31-6.89-6.04,4.62-13.08,38.46,35.08-4.24,11.99ZM997.59,678.01l-11.2-2.84,3.51-13.84-34.92-8.86,3.24-12.78,34.92,8.86,3.51-13.84,11.2,2.84-10.27,40.46ZM1013.53,601.63l-26.17-3.87c-6.79-1.01-10.53,1.95-11.3,7.19-.77,5.25,1.81,9.13,8.4,10.11l26.5,3.92-1.96,13.25-26.1-3.86c-15.2-2.25-20.58-11.91-18.6-25.29,1.98-13.38,10.02-20.79,24.75-18.61l26.43,3.91-1.96,13.25ZM1016.84,563.47c-.54,12.02-7.07,19.49-17.59,19.02h-.14c-11.21-.51-16.73-9.4-16.2-21.22l.29-6.52-13.59-.61.59-13.18,47.55,2.13-.91,20.38Z"/><path class="cls-3" d="M102.52,683.2l-.13.05c-3.53,1.23-4.44,4.42-2.99,8.59l2.83,8.16,10.79-3.75-2.85-8.22c-1.47-4.24-4.37-5.97-7.65-4.83Z"/><polygon class="cls-3" points="901.88 252.47 887.94 256.7 894.59 265.05 901.88 252.47"/><polygon class="cls-3" points="122.64 738.61 137.17 737.66 132.59 728.01 122.64 738.61"/><path class="cls-3" d="M116.21,377.11l.13.05c6.34,2.64,13.77.35,16.54-6.31,2.79-6.72-.76-13.42-7.1-16.05l-.12-.05c-6.34-2.63-13.77-.35-16.57,6.37-2.76,6.65.78,13.36,7.12,15.99Z"/><path class="cls-2" d="M530.68,400.04c7.5,0,13.59-6.1,13.59-13.59s-6.1-13.59-13.59-13.59-13.59,6.1-13.59,13.59,6.1,13.59,13.59,13.59Z"/><path class="cls-2" d="M540,158.01c-210.97,0-381.99,171.02-381.99,381.99s171.02,381.99,381.99,381.99,381.99-171.02,381.99-381.99-171.02-381.99-381.99-381.99ZM620.58,666.23l-21.93-5.1v52.8c0,7.38-5.98,13.37-13.37,13.37s-13.37-5.98-13.37-13.37v-59.02l-10.92-2.54c-25.62-6.01-43.49-28.56-43.49-54.85v-38.46l-61.66-32.01c-12.04-6.25-19.53-18.57-19.53-32.14v-15.53c-15.66-5.52-26.91-20.45-26.91-37.97,0-22.2,18.06-40.26,40.26-40.26s40.26,18.06,40.26,40.26c0,17.52-11.26,32.46-26.91,37.97v15.53c0,3.57,1.97,6.81,5.14,8.45l49.36,25.63v-104.44c-15.79-5.47-27.16-20.48-27.16-38.11,0-22.24,18.09-40.33,40.33-40.33s40.33,18.09,40.33,40.33c0,17.48-11.18,32.39-26.76,37.97v125.02c.12,1.03.12,2.07,0,3.11v8.67l49.88-26.2c3.22-1.67,5.19-4.91,5.19-8.48v-19.39c-15.76-5.49-27.1-20.48-27.1-38.09,0-22.24,18.09-40.33,40.33-40.33s40.33,18.09,40.33,40.33c0,17.51-11.23,32.45-26.86,38.01v19.47c0,13.57-7.48,25.89-19.53,32.14l-62.23,32.69v6.16c0,13.81,9.39,25.66,22.84,28.82l59.55,13.85c6.55,1.52,13.32,0,18.58-4.18,5.26-4.18,8.28-10.43,8.28-17.15v-28.23c0-14.84,12.07-26.91,26.91-26.91h14.97c.05,0,.11,0,.16,0l5.1.06c2.37.07,3.99-1.19,4.72-1.93.73-.73,1.95-2.32,1.91-4.73v-.26c-.02-1.06-.29-2.07-.79-3.01-6.62-12.22-12.07-25.12-16.21-38.32-7.5-23.9-10.78-48.87-9.77-74.22-.07-82.59-67.28-149.77-149.89-149.77-39.6,0-76.96,15.3-105.17,43.09-28.18,27.76-44.06,64.8-44.7,104.31,0,.41-.04.82-.08,1.22.04.46.07.93.06,1.4-.24,25.76,4.23,50.7,13.29,74.14,16.78,43.41,46.04,72.23,67.63,88.76,17.86,13.67,28.53,35.24,28.53,57.69v23.53c0,22.59-18.38,40.98-40.98,40.98h-14.01v20.06c0,16.22-11.63,29.77-26.99,32.77v15.59c0,7.38-5.98,13.37-13.37,13.37s-13.37-5.98-13.37-13.37v-14.97h-27.72v14.97c0,7.38-5.98,13.37-13.37,13.37s-13.37-5.98-13.37-13.37v-15.6c-12.95-2.55-23.23-12.61-26.11-25.44h-15.63c-7.38,0-13.37-5.98-13.37-13.37s5.98-13.37,13.37-13.37h14.81v-27.72h-14.81c-7.38,0-13.37-5.98-13.37-13.37s5.98-13.37,13.37-13.37h15.4c2.52-13.36,13.02-23.94,26.35-26.56v-15.15c0-7.38,5.98-13.37,13.37-13.37s13.37,5.98,13.37,13.37v14.52h27.72v-14.52c0-7.38,5.98-13.37,13.37-13.37s13.37,5.98,13.37,13.37v15.14c15.36,2.99,26.99,16.55,26.99,32.77v20.88h14.01c7.85,0,14.25-6.39,14.25-14.25v-23.53c0-14.18-6.75-27.81-18.04-36.46-24.32-18.62-57.29-51.13-76.32-100.35-10.28-26.61-15.36-54.88-15.08-84.03,0-.46.03-.91.08-1.35-.04-.48-.07-.96-.06-1.45.76-46.56,19.46-90.22,52.67-122.92,16.51-16.26,35.69-28.89,56.52-37.49v-54.61c0-7.38,5.98-13.37,13.37-13.37s13.37,5.98,13.37,13.37v46.03c9.04-2.12,18.29-3.55,27.69-4.23v-14.48c0-7.38,5.98-13.37,13.37-13.37s13.37,5.98,13.37,13.37v14.55c9.42.73,18.64,2.21,27.59,4.37v-46.23c0-7.38,5.98-13.37,13.37-13.37s13.37,5.98,13.37,13.37v54.98c63.7,26.7,108.55,89.7,108.55,162.97,0,.09-.01.19-.01.28,0,.09,0,.18,0,.28-.94,22.4,1.94,44.45,8.56,65.53,3.63,11.57,8.41,22.87,14.21,33.59,2.54,4.7,3.93,10,4.01,15.33v.25c.14,9.06-3.31,17.59-9.71,24.01-6.4,6.42-14.92,9.86-23.98,9.78l-5.01-.06h-14.89c-.1,0-.18.08-.18.18v28.23c0,14.92-6.7,28.81-18.39,38.09-8.72,6.92-19.3,10.56-30.15,10.56-3.7,0-7.42-.42-11.11-1.28ZM704.28,750.91c-2.61,2.61-6.03,3.92-9.45,3.92s-6.84-1.31-9.45-3.92l-27.21-27.21c-5.22-5.22-5.22-13.68,0-18.9l26.98-26.98c5.22-5.22,13.68-5.22,18.9,0,5.22,5.22,5.22,13.68,0,18.9l-17.53,17.53,17.76,17.76c5.22,5.22,5.22,13.68,0,18.9ZM757.72,690.69l-20.82,55.56c-1.96,5.23-6.92,8.46-12.2,8.46-1.52,0-3.06-.27-4.57-.83-6.74-2.52-10.15-10.03-7.63-16.77l20.82-55.56c2.52-6.74,10.03-10.15,16.77-7.63,6.74,2.52,10.15,10.03,7.63,16.77ZM812.88,722.76l-26.98,26.98c-2.61,2.61-6.03,3.92-9.45,3.92s-6.84-1.31-9.45-3.92c-5.22-5.22-5.22-13.68,0-18.9l17.53-17.53-17.76-17.76c-5.22-5.22-5.22-13.68,0-18.9,5.22-5.22,13.68-5.22,18.9,0l27.21,27.21c5.22,5.22,5.22,13.68,0,18.9Z"/><path class="cls-2" d="M612.54,482.64c7.5,0,13.59-6.1,13.59-13.59s-6.1-13.59-13.59-13.59-13.59,6.1-13.59,13.59,6.1,13.59,13.59,13.59Z"/><path class="cls-2" d="M463.25,441.4c0-7.48-6.09-13.57-13.57-13.57s-13.57,6.09-13.57,13.57,6.09,13.57,13.57,13.57,13.57-6.09,13.57-13.57Z"/><path class="cls-2" d="M393.92,672.4h-52.68c-.3.02-.59.04-.89.04s-.59-.03-.89-.04h-6.02c-3.61,0-6.66,3.05-6.66,6.66v67.67c0,3.61,3.05,6.66,6.66,6.66h68.33c3.61,0,6.66-3.05,6.66-6.66v-67.67c0-3.61-3.05-6.66-6.66-6.66h-6.08c-.3.02-.59.04-.89.04s-.59-.03-.89-.04Z"/><path class="cls-2" d="M187.98,827.33l-.1.09c-10.17,9.23-10.79,23.11.63,35.7l12.34,13.59,35.24-31.99-12.15-13.39c-11.52-12.69-25.79-13.23-35.96-4ZM200.65,859.09l-3.61-3.98c-5.3-5.84-5.55-12.69.09-17.81l.1-.09c5.69-5.17,12.43-4.21,17.73,1.63l3.61,3.98-17.92,16.27Z"/><polygon class="cls-2" points="181.66 778.35 172.62 785 187.78 805.59 181.7 810.06 168.15 791.66 159.78 797.83 173.32 816.23 167.51 820.5 152.56 800.19 143.53 806.84 166.22 837.66 204.55 809.45 181.66 778.35"/><path class="cls-2" d="M173.73,765.18l-11.67,6.98-3.35-5.6c-6.07-10.15-15.58-14.53-25.21-8.77l-.12.07c-9.04,5.41-10.38,15.24-4.2,25.57l10.47,17.51,40.85-24.43-6.77-11.32ZM142.39,783.92l-3.17-5.31c-2.45-4.09-2.04-7.65,1.46-9.75l.12-.07c3.21-1.92,6.78-.72,9.18,3.3l3.21,5.37-10.8,6.45Z"/><path class="cls-2" d="M157.25,736.17l-9.14.57-7.88-16.58,6.19-6.78-6.02-12.67-.2.07-34.45,38.7,5.46,11.49,52-2.27-5.96-12.53ZM122.64,738.61l9.95-10.6,4.58,9.64-14.53.95Z"/><path class="cls-2" d="M140.39,700.71l.34-.12-4.33-12.46-13.62,4.73-1.85-5.33-.05-.13,10.47-13.78-5-14.39-11.95,16.17c-4.32-4.76-10.15-6.84-17.02-4.45l-.13.05c-4.43,1.54-7.43,4.09-9.09,7.61-2.03,4.09-2.18,9.47.2,16.34l7.38,21.26,44.42-15.42.16-.17.05.1ZM102.24,700l-2.83-8.16c-1.45-4.17-.54-7.37,2.99-8.59l.13-.05c3.28-1.14,6.18.59,7.65,4.83l2.85,8.22-10.79,3.75Z"/><polygon class="cls-2" points="140.35 700.61 140.19 700.78 140.39 700.71 140.35 700.61"/><polygon class="cls-2" points="88.7 655.77 123.73 647.33 120.64 634.51 85.61 642.95 82.27 629.07 71.04 631.78 80.81 672.36 92.05 669.65 88.7 655.77"/><path class="cls-2" d="M116.68,615.45l-8.9-2.12-2.68-18.16,7.9-4.67-2.04-13.87h-.23s-44.26,26.91-44.26,26.91l1.85,12.58,50.37,13.06-2.02-13.72ZM82.89,607.65l12.61-7.22,1.56,10.56-14.17-3.34Z"/><polygon class="cls-2" points="110.97 576.63 111.03 576.63 110.68 563.71 83.49 564.44 101.65 551.84 101.65 551.57 82.69 539.9 110.02 539.16 109.67 526.04 62.08 527.32 62.45 541.26 81.18 552.12 63.07 563.97 63.44 577.91 110.74 576.63 110.95 576.51 110.97 576.63"/><polygon class="cls-2" points="110.95 576.51 110.74 576.63 110.97 576.63 110.95 576.51"/><polygon class="cls-2" points="113.35 483.85 102.17 482.92 100.05 508.41 92.52 507.78 94.42 485.01 84.05 484.15 82.16 506.92 74.97 506.32 77.06 481.18 65.88 480.25 62.71 518.4 110.15 522.35 113.35 483.85"/><polygon class="cls-2" points="115.94 468.95 90.29 464.11 119.72 448.98 121.86 437.63 75.1 428.79 72.68 441.61 97.4 446.29 69.05 460.85 66.76 472.94 113.52 481.78 115.94 468.95"/><polygon class="cls-2" points="91.8 412.53 126.32 422.85 130.09 410.22 95.58 399.89 99.67 386.21 88.6 382.9 76.64 422.89 87.71 426.2 91.8 412.53"/><path class="cls-2" d="M111.15,389.66l.12.05c12.62,5.24,26.91-.6,32.54-14.16,5.64-13.56-.37-27.99-13-33.23l-.12-.05c-12.62-5.24-26.91.6-32.54,14.16-5.64,13.56.37,27.99,13,33.23ZM109.09,361.12c2.79-6.72,10.23-9.01,16.57-6.37l.12.05c6.34,2.63,9.89,9.34,7.1,16.05-2.77,6.65-10.2,8.95-16.54,6.31l-.13-.05c-6.34-2.63-9.89-9.34-7.12-15.99Z"/><path class="cls-2" d="M170.17,320.86c8.88-14.65,5.34-28.48-6.4-35.6l-.12-.07c-11.74-7.12-25.23-3.76-34.04,10.77l-9.52,15.7,40.7,24.67,9.37-15.46ZM157.63,318.98l-20.7-12.54,2.79-4.59c4.09-6.75,10.58-8.93,17.09-4.98l.12.07c6.57,3.98,7.58,10.71,3.49,17.46l-2.78,4.59Z"/><polygon class="cls-2" points="208.89 265.22 199.94 258.47 184.54 278.87 178.52 274.33 192.28 256.09 183.97 249.83 170.22 268.06 164.46 263.72 179.66 243.59 170.71 236.84 147.65 267.38 185.63 296.05 208.89 265.22"/><rect class="cls-2" x="201.27" y="207.22" width="13.26" height="47.6" transform="translate(-102.85 226.07) rotate(-47.1)"/><polygon class="cls-2" points="242.11 229.99 224.4 210.79 257.05 216.2 265.55 208.36 233.27 173.37 223.68 182.22 240.74 200.72 209.28 195.5 200.23 203.84 232.51 238.84 242.11 229.99"/><path class="cls-2" d="M253.16,187.9c8.52,11.62,23.48,13.3,35.43,4.54,6.96-5.1,10.72-11.82,12.33-18.14l-12.66-17.27-17.65,12.94,5.71,7.79,7.57-5.55,3.42,4.66c-.83,2.21-2.4,4.2-4.98,6.09-6.09,4.46-13.67,3.19-18.21-3l-.08-.11c-4.3-5.86-3.44-13.66,2.1-17.72,3.79-2.77,7.49-3.47,11.92-3.17l.74-12.09c-6.63-.54-12.92.88-19.67,5.82-11.9,8.72-14.24,23.92-6.05,35.11l.08.11Z"/><polygon class="cls-2" points="340.45 158.66 334.79 148.97 312.72 161.88 308.91 155.36 328.63 143.83 323.38 134.85 303.66 146.38 300.02 140.16 321.8 127.43 316.13 117.75 283.09 137.07 307.12 178.15 340.45 158.66"/><polygon class="cls-2" points="354.16 152.23 343.42 128.44 372.69 143.86 383.22 139.11 363.64 95.74 351.74 101.11 362.09 124.03 333.9 109.17 322.68 114.23 342.26 157.6 354.16 152.23"/><rect class="cls-2" x="378.98" y="89.59" width="13.26" height="47.61" transform="translate(-15.59 137.68) rotate(-19.85)"/><polygon class="cls-2" points="441.2 121.19 438.12 110.4 413.54 117.41 411.47 110.15 433.44 103.88 430.58 93.88 408.61 100.15 406.63 93.22 430.89 86.3 427.82 75.51 391 86.01 404.06 131.78 441.2 121.19"/><path class="cls-2" d="M456.23,118.37l-2.57-14.18,5.55-1.01.13-.03,12,12.47,14.99-2.72-14.13-14.3c5.37-3.53,8.32-8.97,7.02-16.13l-.03-.13c-.84-4.61-2.89-7.97-6.12-10.15-3.73-2.64-9.02-3.62-16.17-2.32l-22.14,4.02,8.49,46.82,12.98-2.35ZM458.27,81.24c4.35-.79,7.36.6,8.03,4.28l.03.14c.62,3.41-1.53,6.01-5.95,6.81l-8.56,1.55-2.04-11.24,8.5-1.54Z"/><rect class="cls-2" x="484.93" y="65.21" width="13.25" height="47.58" transform="translate(-6.69 52.99) rotate(-6.13)"/><polygon class="cls-2" points="501.57 52.04 489.19 49.47 483.5 62.73 492.56 61.76 501.57 52.04"/><path class="cls-2" d="M515.02,110.74l3.15-8.59,18.35-.53,3.71,8.4,14.14-.41-21.63-47.34-12.71.36-18.88,48.5,13.87-.4ZM526.74,78.09l5.69,13.37-10.67.31,4.98-13.68Z"/><path class="cls-2" d="M616.92,92.15l.02-.14c1.61-13.64-7.03-24.52-23.92-26.52l-18.23-2.15-5.58,47.27,17.96,2.12c17.02,2.01,28.14-6.95,29.75-20.59ZM586.51,76.5l5.34.63c7.83.93,12.51,5.93,11.62,13.49l-.02.13c-.9,7.63-6.61,11.34-14.45,10.42l-5.34-.63,2.84-24.04Z"/><polygon class="cls-2" points="653.98 124.99 656.43 114.04 631.48 108.45 633.13 101.09 655.42 106.08 657.7 95.93 635.4 90.93 636.97 83.9 661.59 89.41 664.04 78.46 626.69 70.1 616.28 116.55 653.98 124.99"/><path class="cls-2" d="M687.68,137.12c10.86,3.96,20.05,1.17,23.39-7.97l.05-.13c3.05-8.37-2.13-14.02-11.59-20.01-5.68-3.66-6.89-5.12-6.14-7.16l.05-.12c.58-1.6,2.52-2.34,5.52-1.25,3.96,1.44,7.87,4.61,10.91,8.97l9.39-6.49c-3.43-5.67-8.63-9.88-16.23-12.65-10.73-3.92-19.5-.31-22.53,7.99l-.05.13c-3.35,9.2,3.01,14.56,11.74,20.2,5.56,3.62,6.65,5.18,5.98,7.03l-.05.13c-.7,1.92-2.91,2.41-6.23,1.2-5.17-1.89-9.42-5.53-12.54-10.65l-9.91,5.72c3.7,6.92,10.33,12.16,18.25,15.05Z"/><rect class="cls-2" x="700.02" y="118.56" width="47.61" height="13.26" transform="translate(315.77 736) rotate(-66.07)"/><path class="cls-2" d="M738.6,121.37c-4.56,8.66,1.02,14.83,8.9,21.6,5.02,4.34,5.89,6.03,4.97,7.77l-.06.12c-.95,1.8-3.21,2-6.33.35-4.87-2.57-8.58-6.75-10.98-12.25l-10.59,4.33c2.73,7.36,8.59,13.44,16.04,17.38,10.22,5.39,19.71,3.86,24.25-4.73l.07-.12c4.15-7.88-.21-14.18-8.78-21.39-5.13-4.4-6.13-6-5.12-7.93l.07-.12c.79-1.51,2.81-1.98,5.64-.49,3.73,1.97,7.17,5.63,9.59,10.36l10.18-5.16c-2.64-6.08-7.21-10.95-14.37-14.73-10.1-5.33-19.28-2.95-23.4,4.87l-.07.12Z"/><polygon class="cls-2" points="787.79 145.41 768.16 175.63 779.23 182.82 798.85 152.59 810.83 160.37 817.13 150.67 782.11 127.93 775.81 137.63 787.79 145.41"/><polygon class="cls-2" points="822.39 215.39 829.36 206.6 809.32 190.72 814.01 184.81 831.91 198.99 838.37 190.84 820.47 176.65 824.94 171 844.71 186.66 851.68 177.87 821.67 154.1 792.12 191.41 822.39 215.39"/><polygon class="cls-2" points="833.32 225.6 852.42 206.24 848.05 227.91 848.24 228.1 869.99 223.38 850.79 242.84 860.14 252.06 860.2 252 860.08 251.85 860.45 251.74 893.56 218.18 883.64 208.39 862.62 213.53 867.47 192.44 857.55 182.65 824.12 216.53 833.32 225.6"/><path class="cls-2" d="M868.72,262.7l8.77-2.64,11.43,14.36-4.49,8.01,8.81,11.06,3-5.51c.06-.56.12-1.11.21-1.66l.65.08,21.02-38.63-7.92-9.95-49.76,13.91-.25.25,8.52,10.71ZM901.88,252.47l-7.28,12.58-6.65-8.35,13.94-4.23Z"/><polygon class="cls-2" points="860.2 252 860.45 251.74 860.08 251.85 860.2 252"/><path class="cls-2" d="M901.85,309.36c6.24,9.74,15.25,13.09,23.44,7.84l.12-.07c7.5-4.81,6.81-12.44,2.91-22.94-2.3-6.36-2.38-8.25-.55-9.42l.12-.07c1.43-.91,3.42-.33,5.14,2.36,2.28,3.55,3.47,8.44,3.24,13.75l11.4.53c.71-6.59-.88-13.09-5.24-19.9-6.16-9.62-15.32-12.07-22.77-7.3l-.12.07c-8.25,5.28-6.43,13.41-2.92,23.19,2.23,6.25,2.16,8.15.49,9.21l-.11.07c-1.72,1.1-3.77.16-5.68-2.82-2.97-4.64-4.13-10.11-3.51-16.08l-10.7-1.37-.86,1.58c-.73,7.25,1.38,14.78,5.6,21.38Z"/><path class="cls-2" d="M896.25,287.99l.86-1.58-.65-.08c-.09.55-.16,1.11-.21,1.66Z"/><polygon class="cls-2" points="926.81 352.28 932.41 364.3 948.75 356.7 983.2 360.61 976.97 347.23 957.09 345.61 968.67 329.42 962.33 315.8 942.96 344.77 926.81 352.28"/><path class="cls-2" d="M967.23,385.75l-.13.04c-13.59,4.16-20.34,17.67-16.37,30.68,3.08,10.08,9.21,14.54,16.44,17.02l3.86-11.56c-4.15-1.72-7.22-3.84-8.67-8.59-1.95-6.37,2.01-12.49,8.84-14.58l.13-.04c6.63-2.03,13.4.81,15.35,7.18,1.33,4.36.17,7.99-2.29,11.58l10.25,7.25c4.36-5.74,6.43-12.92,3.59-22.22-4.21-13.79-17.74-20.81-31.01-16.76Z"/><path class="cls-2" d="M980.8,429.92l-.13.03c-13.42,2.55-22.14,15.28-19.4,29.7,2.74,14.43,15.68,23.17,29.1,20.62l.14-.03c13.42-2.55,22.14-15.28,19.4-29.7-2.74-14.43-15.68-23.18-29.1-20.62ZM998.2,452.64c1.36,7.14-3.59,13.14-10.34,14.42l-.13.03c-6.75,1.28-13.39-2.37-14.75-9.51-1.34-7.08,3.6-13.07,10.35-14.35l.14-.02c6.75-1.28,13.39,2.37,14.73,9.45Z"/><polygon class="cls-2" points="968.07 499.64 995.21 497.87 977.54 511.15 977.56 511.43 996.95 522.36 969.67 524.14 970.52 537.24 1018.02 534.14 1017.12 520.23 997.98 510.1 1015.64 497.56 1014.73 483.65 967.23 486.75 968.07 499.64"/><path class="cls-2" d="M969.62,554.14l13.59.61-.29,6.52c-.53,11.82,5,20.71,16.2,21.21h.14c10.53.48,17.06-6.99,17.59-19.01l.91-20.38-47.55-2.13-.59,13.18ZM993.25,561.46l.28-6.25,12.57.56-.28,6.18c-.21,4.75-2.51,7.51-6.59,7.33h-.14c-3.74-.18-6.06-3.14-5.84-7.82Z"/><path class="cls-2" d="M964.31,603.08c-1.98,13.39,3.4,23.05,18.6,25.29l26.1,3.86,1.96-13.25-26.5-3.92c-6.6-.98-9.18-4.86-8.4-10.11.78-5.24,4.51-8.2,11.3-7.19l26.17,3.87,1.96-13.25-26.43-3.91c-14.73-2.18-22.77,5.22-24.75,18.61Z"/><polygon class="cls-2" points="993.14 648.56 958.22 639.69 954.98 652.47 989.9 661.34 986.39 675.17 997.59 678.01 1007.86 637.56 996.66 634.72 993.14 648.56"/><path class="cls-2" d="M949.59,671.22l6.89,6.04-6.12,17.31-9.17.44-4.71,13.34,51.96-3.15,4.24-11.99-38.46-35.08-4.62,13.08ZM964.87,684.33l10.97,9.57-14.53.5,3.56-10.07Z"/><path class="cls-2" d="M959.59,714.06l-.12-.06c-12.85-6.09-26.93-.65-32.76,11.64-4.52,9.52-2.99,16.95.68,23.65l10.64-5.94c-1.91-4.07-2.75-7.7-.63-12.19,2.86-6.02,9.91-7.87,16.36-4.81l.12.06c6.27,2.97,9.36,9.63,6.5,15.65-1.95,4.12-5.26,6.01-9.5,7.01l2.69,12.26c7.09-1.3,13.46-5.21,17.62-14,6.17-13.03.91-27.33-11.62-33.28Z"/><rect class="cls-2" x="928.02" y="739.96" width="13.26" height="47.6" transform="translate(-191.11 1199.16) rotate(-60.4)"/><path class="cls-2" d="M929.58,773.86l-.11-.08c-11.3-7.7-26.47-4.87-34.75,7.27-8.27,12.14-5.31,27.49,5.98,35.18l.11.08c11.3,7.7,26.47,4.87,34.74-7.27,8.27-12.14,5.32-27.49-5.98-35.19ZM925.8,802.24c-4.1,6.01-11.84,6.75-17.52,2.88l-.11-.08c-5.68-3.87-7.79-11.15-3.7-17.17,4.06-5.96,11.8-6.69,17.48-2.82l.11.08c5.67,3.87,7.79,11.15,3.73,17.11Z"/><polygon class="cls-2" points="934.92 813.97 936.49 827.13 946.47 819.37 940.05 806.44 934.92 813.97"/><polygon class="cls-2" points="871.11 814.23 890.79 831.38 857.75 829.55 850.16 838.27 886.04 869.53 894.61 859.69 875.65 843.16 907.47 844.93 915.55 835.65 879.68 804.39 871.11 814.23"/><path class="cls-2" d="M474.27,1000.36c-1.77,10.29-7.95,14.19-16.14,12.79-8.19-1.4-12.68-7.36-10.85-17.97l7.01-40.82-20.68-3.56-7.09,41.25c-3.95,22.99,7.35,35.84,28.24,39.43,20.88,3.59,36.21-4.48,40.28-28.2l7-40.72-20.67-3.55-7.11,41.35Z"/><path class="cls-2" d="M541.3,1020.06c-10.44-.08-17.72-8.86-17.65-20.05v-.22c.07-10.86,7.49-19.65,17.93-19.58,7.14.06,12.01,3.5,16.24,8.85l15.64-11.92c-6.54-9.21-16.3-15.67-31.53-15.78-22.58-.16-39.42,16.76-39.58,38.49v.22c-.16,22.26,16.87,38.68,38.18,38.83,16.51.12,26.04-6.95,33.14-16.59l-15.47-11.19c-4.51,5.4-9.12,8.99-16.89,8.93Z"/><polygon class="cls-2" points="622.97 954.99 629.32 993.89 592.7 959.93 573.67 963.04 585.68 1036.61 605.86 1033.32 599.27 992.96 637.29 1028.19 655.16 1025.27 643.15 951.7 622.97 954.99"/><path class="cls-2" d="M259.7,905.23c33.5,25.8,70.32,46.81,109.44,62.44l5.33-13.35c-37.89-15.14-73.56-35.49-106-60.48l-8.77,11.38Z"/><path class="cls-2" d="M702.24,954.79l5.29,13.36c43.13-17.09,83.34-40.62,119.53-69.94l-9.05-11.17c-35.05,28.4-74.01,51.2-115.78,67.74Z"/><path class="cls-1" d="M606.48,558.67c12.04-6.25,19.53-18.57,19.53-32.14v-19.47c-4.21,1.5-8.74,2.32-13.46,2.32s-9.08-.79-13.22-2.24v19.39c0,3.57-1.97,6.81-5.19,8.48l-49.88,26.2v30.14l62.23-32.69Z"/><path class="cls-1" d="M612.66,489.1c7.37,0,13.34,5.97,13.34,13.34v4.62c15.63-5.56,26.86-20.49,26.86-38.01,0-22.24-18.09-40.33-40.33-40.33s-40.33,18.09-40.33,40.33c0,17.6,11.35,32.6,27.1,38.09v-4.7c0-7.37,5.97-13.34,13.34-13.34ZM612.54,455.46c7.5,0,13.59,6.1,13.59,13.59s-6.1,13.59-13.59,13.59-13.59-6.1-13.59-13.59,6.1-13.59,13.59-13.59Z"/><path class="cls-1" d="M626.01,507.06v-4.62c0-7.37-5.97-13.34-13.34-13.34s-13.34,5.97-13.34,13.34v4.7c4.15,1.44,8.59,2.24,13.22,2.24s9.25-.82,13.46-2.32Z"/><path class="cls-1" d="M544.35,265.36v-14.55c0-7.38-5.98-13.37-13.37-13.37s-13.37,5.98-13.37,13.37v14.48c4.3-.31,8.63-.47,12.99-.47,4.63,0,9.21.18,13.75.53Z"/><path class="cls-1" d="M598.67,223.5c0-7.38-5.98-13.37-13.37-13.37s-13.37,5.98-13.37,13.37v46.23c9.21,2.22,18.14,5.15,26.73,8.75v-54.98Z"/><path class="cls-1" d="M489.93,223.5c0-7.38-5.98-13.37-13.37-13.37s-13.37,5.98-13.37,13.37v54.61c8.65-3.57,17.58-6.43,26.73-8.58v-46.03Z"/><path class="cls-1" d="M409.34,713.3c0-7.38,5.98-13.37,13.37-13.37h12.46v-20.88c0-16.22-11.63-29.77-26.99-32.77v12.79c0,7.08-5.51,12.86-12.48,13.32h6.08c3.61,0,6.66,3.05,6.66,6.66v67.67c0,3.61-3.05,6.66-6.66,6.66h-68.33c-3.61,0-6.66-3.05-6.66-6.66v-67.67c0-3.61,3.05-6.66,6.66-6.66h6.02c-6.97-.46-12.48-6.24-12.48-13.32v-12.78c-13.33,2.62-23.83,13.2-26.35,26.56h12.54c7.38,0,13.37,5.98,13.37,13.37s-5.98,13.37-13.37,13.37h-13.12v27.72h13.12c7.38,0,13.37,5.98,13.37,13.37s-5.98,13.37-13.37,13.37h-12.3c2.88,12.83,13.16,22.89,26.11,25.44v-11.12c0-7.38,5.98-13.37,13.37-13.37s13.37,5.98,13.37,13.37v11.76h27.72v-11.76c0-7.38,5.98-13.37,13.37-13.37s13.37,5.98,13.37,13.37v11.13c15.36-2.99,26.99-16.55,26.99-32.77v-20.06h-12.46c-7.38,0-13.37-5.98-13.37-13.37Z"/><path class="cls-1" d="M341.25,672.4h52.68c-6.97-.46-12.48-6.24-12.48-13.32v-13.41h-27.72v13.41c0,7.08-5.51,12.86-12.48,13.32Z"/><path class="cls-1" d="M694.42,428.1c7.28.3,12.95,6.38,12.79,13.63,0-.09.01-.19.01-.28,0-73.28-44.86-136.27-108.55-162.97v2.8c0,7.38-5.98,13.37-13.37,13.37s-13.37-5.98-13.37-13.37v-11.55c-8.96-2.16-18.17-3.64-27.59-4.37v11.77c0,7.38-5.98,13.37-13.37,13.37s-13.37-5.98-13.37-13.37v-11.84c-9.4.68-18.65,2.11-27.69,4.23v11.75c0,7.38-5.98,13.37-13.37,13.37s-13.37-5.98-13.37-13.37v-3.17c-20.83,8.6-40,21.23-56.52,37.49-33.21,32.71-51.92,76.36-52.67,122.92,0,.49.01.97.06,1.45.74-6.74,6.52-11.97,13.41-11.89,6.91.07,12.54,5.36,13.18,12.09.04-.4.08-.81.08-1.22.64-39.51,16.52-76.56,44.7-104.31,28.22-27.79,65.57-43.09,105.17-43.09,82.61,0,149.82,67.17,149.89,149.77,0-.14,0-.29.01-.43.31-7.38,6.52-13.1,13.91-12.8Z"/><path class="cls-1" d="M530.98,290.5c7.38,0,13.37-5.98,13.37-13.37v-11.77c-4.54-.35-9.12-.53-13.75-.53-4.35,0-8.68.16-12.99.47v11.84c0,7.38,5.98,13.37,13.37,13.37Z"/><path class="cls-1" d="M585.31,294.65c7.38,0,13.37-5.98,13.37-13.37v-2.8c-8.59-3.6-17.52-6.54-26.73-8.75v11.55c0,7.38,5.98,13.37,13.37,13.37Z"/><path class="cls-1" d="M476.56,294.65c7.38,0,13.37-5.98,13.37-13.37v-11.75c-9.15,2.15-18.08,5.01-26.73,8.58v3.17c0,7.38,5.98,13.37,13.37,13.37Z"/><path class="cls-1" d="M544.25,549.43v-125.02c-4.24,1.52-8.81,2.35-13.57,2.35s-9.04-.79-13.17-2.22v104.44l19.63,10.19c4.06,2.11,6.58,6.02,7.1,10.25Z"/><path class="cls-1" d="M680.23,618.86v-28.23c0-.1.08-.18.18-.18h14.89l5.01.06c9.06.07,17.58-3.36,23.98-9.78,6.4-6.42,9.85-14.94,9.71-24.01v-.25c-.08-5.33-1.47-10.63-4.01-15.33-5.8-10.72-10.58-22.02-14.21-33.59-6.61-21.08-9.49-43.13-8.56-65.53,0-.09,0-.18,0-.28-.15,7.25-6.06,13.09-13.35,13.09s-13.37-5.98-13.37-13.37c0-.04,0-.09,0-.13-1.01,25.35,2.28,50.32,9.77,74.22,4.14,13.2,9.59,26.09,16.21,38.32.51.94.77,1.95.79,3.01v.26c.04,2.41-1.18,4-1.91,4.73-.73.73-2.35,1.99-4.72,1.93l-5.1-.06c-.05,0-.11,0-.16,0h-14.97c-14.84,0-26.91,12.07-26.91,26.91v28.23c0,6.72-3.02,12.97-8.28,17.15-5.26,4.18-12.04,5.7-18.58,4.18l-59.55-13.85c-13.45-3.16-22.84-15.01-22.84-28.82v-6.16l-5.09,2.67c-1.98,1.04-4.1,1.53-6.19,1.53-4.8,0-9.44-2.6-11.82-7.14-3.43-6.52-.92-14.59,5.61-18.02l17.5-9.19v-8.67c-.18,1.57-.63,3.14-1.4,4.63-2.38,4.57-7.03,7.2-11.85,7.2-2.07,0-4.17-.48-6.14-1.5l-7.34-3.81v38.46c0,26.29,17.87,48.84,43.49,54.85l10.92,2.54v-9.83c0-7.38,5.98-13.37,13.37-13.37s13.37,5.98,13.37,13.37v16.05l21.93,5.1c3.69.86,7.42,1.28,11.11,1.28,10.85,0,21.43-3.64,30.15-10.56,11.69-9.28,18.39-23.16,18.39-38.09Z"/><path class="cls-1" d="M521.14,588.42c2.39,4.54,7.02,7.14,11.82,7.14,2.09,0,4.21-.49,6.19-1.53l5.09-2.67v-30.14l-17.5,9.19c-6.52,3.43-9.03,11.49-5.61,18.02Z"/><path class="cls-1" d="M693.86,454.82c7.29,0,13.2-5.83,13.35-13.09.15-7.25-5.51-13.33-12.79-13.63-7.39-.3-13.6,5.42-13.91,12.8,0,.14,0,.29-.01.43,0,.04,0,.09,0,.13,0,7.38,5.98,13.37,13.37,13.37Z"/><path class="cls-1" d="M530.88,400.6c7.38,0,13.37,5.98,13.37,13.37v10.44c15.58-5.58,26.76-20.49,26.76-37.97,0-22.24-18.09-40.33-40.33-40.33s-40.33,18.09-40.33,40.33c0,17.63,11.37,32.64,27.16,38.11v-10.58c0-7.38,5.98-13.37,13.37-13.37ZM530.68,372.85c7.5,0,13.59,6.1,13.59,13.59s-6.1,13.59-13.59,13.59-13.59-6.1-13.59-13.59,6.1-13.59,13.59-13.59Z"/><path class="cls-1" d="M544.25,424.41v-10.44c0-7.38-5.98-13.37-13.37-13.37s-13.37,5.98-13.37,13.37v10.58c4.13,1.43,8.56,2.22,13.17,2.22s9.32-.83,13.57-2.35Z"/><path class="cls-1" d="M449.67,454.97c-7.48,0-13.57-6.09-13.57-13.57s6.09-13.57,13.57-13.57,13.57,6.09,13.57,13.57-6.09,13.57-13.57,13.57c7.37,0,13.34,5.97,13.34,13.34v11.06c15.66-5.52,26.91-20.45,26.91-37.97,0-22.2-18.06-40.26-40.26-40.26s-40.26,18.06-40.26,40.26c0,17.52,11.26,32.46,26.91,37.97v-11.06c0-7.37,5.97-13.34,13.34-13.34Z"/><path class="cls-1" d="M544.25,549.43v3.11c.12-1.04.12-2.09,0-3.11Z"/><path class="cls-1" d="M468.15,503.36c-3.17-1.65-5.14-4.88-5.14-8.45v-15.53c-4.18,1.47-8.67,2.28-13.34,2.28s-9.16-.81-13.34-2.28v15.53c0,13.57,7.48,25.89,19.53,32.14l61.66,32.01v-30.07l-49.36-25.63Z"/><path class="cls-1" d="M530.99,564.37c4.82,0,9.48-2.62,11.85-7.2.77-1.49,1.22-3.06,1.4-4.63v-3.11c-.51-4.23-3.03-8.14-7.1-10.25l-19.63-10.19v30.07l7.34,3.81c1.96,1.02,4.07,1.5,6.14,1.5Z"/><path class="cls-1" d="M463.02,479.38v-11.06c0-7.37-5.97-13.34-13.34-13.34s-13.34,5.97-13.34,13.34v11.06c4.18,1.47,8.67,2.28,13.34,2.28s9.16-.81,13.34-2.28Z"/><path class="cls-1" d="M367.15,452.11c-6.89-.11-12.47-5.42-13.09-12.13-.05.44-.08.89-.08,1.35-.28,29.15,4.8,57.42,15.08,84.03,19.02,49.21,52,81.73,76.32,100.35,11.3,8.65,18.04,22.28,18.04,36.46v23.53c0,7.85-6.39,14.25-14.25,14.25h-14.01v26.73h14.01c22.59,0,40.98-18.38,40.98-40.98v-23.53c0-22.45-10.66-44.01-28.53-57.69-21.59-16.53-50.85-45.35-67.63-88.76-9.06-23.44-13.53-48.38-13.29-74.14,0-.47-.02-.94-.06-1.4-.73,6.8-6.56,12.01-13.5,11.93Z"/><path class="cls-1" d="M422.71,699.94c-7.38,0-13.37,5.98-13.37,13.37s5.98,13.37,13.37,13.37h12.46v-26.73h-12.46Z"/><path class="cls-1" d="M367.47,428.09c-6.89-.08-12.67,5.15-13.41,11.89.61,6.71,6.2,12.02,13.09,12.13,6.94.09,12.77-5.13,13.5-11.93-.64-6.73-6.27-12.03-13.18-12.09Z"/><path class="cls-1" d="M353.72,645.67v-14.52c0-7.38-5.98-13.37-13.37-13.37s-13.37,5.98-13.37,13.37v15.15c2.09-.41,4.25-.63,6.46-.63h20.27Z"/><path class="cls-1" d="M341.25,672.4h-1.78c.3.02.59.04.89.04s.59-.03.89-.04Z"/><path class="cls-1" d="M339.47,672.4h1.78c6.97-.46,12.48-6.24,12.48-13.32v-13.41h-20.27c-2.21,0-4.37.22-6.46.63v12.78c0,7.08,5.51,12.86,12.48,13.32Z"/><path class="cls-1" d="M408.18,646.29v-15.14c0-7.38-5.98-13.37-13.37-13.37s-13.37,5.98-13.37,13.37v14.52h20.33c2.19,0,4.33.22,6.4.62Z"/><path class="cls-1" d="M394.81,672.44c.3,0,.59-.03.89-.04h-1.78c.3.02.59.04.89.04Z"/><path class="cls-1" d="M393.92,672.4h1.78c6.97-.46,12.48-6.24,12.48-13.32v-12.79c-2.07-.4-4.21-.62-6.4-.62h-20.33v13.41c0,7.08,5.51,12.86,12.48,13.32Z"/><path class="cls-1" d="M300.64,672.86h-15.4c-7.38,0-13.37,5.98-13.37,13.37s5.98,13.37,13.37,13.37h14.81v-20.54c0-2.12.21-4.19.59-6.2Z"/><path class="cls-1" d="M326.55,686.23c0-7.38-5.98-13.37-13.37-13.37h-12.54c-.38,2.01-.59,4.08-.59,6.2v20.54h13.12c7.38,0,13.37-5.98,13.37-13.37Z"/><path class="cls-1" d="M300.06,727.32h-14.81c-7.38,0-13.37,5.98-13.37,13.37s5.98,13.37,13.37,13.37h15.63c-.53-2.36-.82-4.81-.82-7.32v-19.41Z"/><path class="cls-1" d="M326.55,740.68c0-7.38-5.98-13.37-13.37-13.37h-13.12v19.41c0,2.52.29,4.96.82,7.32h12.3c7.38,0,13.37-5.98,13.37-13.37Z"/><path class="cls-1" d="M326.99,779.49v15.6c0,7.38,5.98,13.37,13.37,13.37s13.37-5.98,13.37-13.37v-14.97h-20.27c-2.21,0-4.37-.22-6.46-.63Z"/><path class="cls-1" d="M340.36,755c-7.38,0-13.37,5.98-13.37,13.37v11.12c2.09.41,4.25.63,6.46.63h20.27v-11.76c0-7.38-5.98-13.37-13.37-13.37Z"/><path class="cls-1" d="M381.45,780.12v14.97c0,7.38,5.98,13.37,13.37,13.37s13.37-5.98,13.37-13.37v-15.59c-2.07.4-4.21.62-6.4.62h-20.33Z"/><path class="cls-1" d="M394.81,755c-7.38,0-13.37,5.98-13.37,13.37v11.76h20.33c2.19,0,4.33-.22,6.4-.62v-11.13c0-7.38-5.98-13.37-13.37-13.37Z"/><path class="cls-1" d="M686.52,714.25l17.53-17.53c5.22-5.22,5.22-13.68,0-18.9-5.22-5.22-13.68-5.22-18.9,0l-26.98,26.98c-5.22,5.22-5.22,13.68,0,18.9l27.21,27.21c2.61,2.61,6.03,3.92,9.45,3.92s6.84-1.31,9.45-3.92c5.22-5.22,5.22-13.68,0-18.9l-17.76-17.76Z"/><path class="cls-1" d="M766.77,676.65c-5.22,5.22-5.22,13.68,0,18.9l17.76,17.76-17.53,17.53c-5.22,5.22-5.22,13.68,0,18.9,2.61,2.61,6.03,3.92,9.45,3.92s6.84-1.31,9.45-3.92l26.98-26.98c5.22-5.22,5.22-13.68,0-18.9l-27.21-27.21c-5.22-5.22-13.68-5.22-18.9,0Z"/><path class="cls-1" d="M571.92,713.93c0,7.38,5.98,13.37,13.37,13.37s13.37-5.98,13.37-13.37v-52.8l-26.73-6.22v59.02Z"/><path class="cls-1" d="M585.29,631.71c-7.38,0-13.37,5.98-13.37,13.37v9.83l26.73,6.22v-16.05c0-7.38-5.98-13.37-13.37-13.37Z"/><path class="cls-1" d="M750.09,673.92c-6.74-2.52-14.24.89-16.77,7.63l-20.82,55.56c-2.52,6.74.89,14.24,7.63,16.77,1.51.56,3.05.83,4.57.83,5.27,0,10.24-3.23,12.2-8.46l20.82-55.56c2.52-6.74-.89-14.24-7.63-16.77Z"/></svg>